<svg xmlns="http://www.w3.org/2000/svg" width="40" height="40" viewBox="0 0 40 40" fill="none">
  <g clip-path="url(#clip0_5_4)">
    <path d="M30.8333 0H9.16667C6.73633 0.00264695 4.40629 0.969268 2.68778 2.68778C0.969268 4.40629 0.00264695 6.73633 0 9.16667L0 30.8333C0.00264695 33.2637 0.969268 35.5937 2.68778 37.3122C4.40629 39.0307 6.73633 39.9974 9.16667 40H30.8333C33.2637 39.9974 35.5937 39.0307 37.3122 37.3122C39.0307 35.5937 39.9974 33.2637 40 30.8333V9.16667C39.9974 6.73633 39.0307 4.40629 37.3122 2.68778C35.5937 0.969268 33.2637 0.00264695 30.8333 0ZM35 30.8333C35 31.9384 34.561 32.9982 33.7796 33.7796C32.9982 34.561 31.9384 35 30.8333 35H30V33.3333C30 30.6812 28.9464 28.1376 27.0711 26.2623C25.1957 24.3869 22.6522 23.3333 20 23.3333C17.3478 23.3333 14.8043 24.3869 12.9289 26.2623C11.0536 28.1376 10 30.6812 10 33.3333V35H9.16667C8.0616 35 7.00179 34.561 6.22039 33.7796C5.43899 32.9982 5 31.9384 5 30.8333V9.16667C5 8.0616 5.43899 7.00179 6.22039 6.22039C7.00179 5.43899 8.0616 5 9.16667 5H30.8333C31.9384 5 32.9982 5.43899 33.7796 6.22039C34.561 7.00179 35 8.0616 35 9.16667V30.8333Z" fill="black"/>
    <path d="M20 20C23.2216 20 25.8333 17.3883 25.8333 14.1667C25.8333 10.945 23.2216 8.33333 20 8.33333C16.7783 8.33333 14.1666 10.945 14.1666 14.1667C14.1666 17.3883 16.7783 20 20 20Z" fill="black"/>
  </g>
  <defs>
    <clipPath id="clip0_5_4">
      <rect width="40" height="40" fill="white"/>
    </clipPath>
  </defs>
</svg>